<?xml version="1.0" encoding="utf-8"?>
<svg version="1.1" xmlns="http://www.w3.org/2000/svg" x="0px" y="0px"
     viewBox="0 0 662.3 672.4"  xml:space="preserve">
<style type="text/css">
	.st0{fill:#FFC022;}
	.st1{clip-path:url(#SVGID_1_);}
	.st2{fill:none;stroke:#71657A;stroke-width:2.0169;stroke-miterlimit:10;}
	.st3{fill:none;stroke:#71657A;stroke-width:2.0565;stroke-miterlimit:10;}
</style>
    <g id="Слой_1">
	  <defs>
                    <filter id='grain' x='-50vw' y='-50vh' width='100vw' height='100vh'>

                        <feFlood flood-color='#ffffff' result='neutral-gray'/>
                        <feTurbulence in='neutral-gray' type='fractalNoise' baseFrequency='2.5' numOctaves='100'
                                      stitchTiles='stitch' result='noise'/>
                        <feColorMatrix in='noise' type='saturate' values='0' result='destaturatedNoise'/>
                        <feComponentTransfer in='desaturatedNoise' result='theNoise'>
                            <feFuncA type='table' tableValues='0 0 0.5 0'/>
                        </feComponentTransfer>
                        <feBlend in='SourceGraphic' in2='theNoise' mode='soft-light' result='noisy-image'/>

                    </filter>

          <clipPath id='shape'>
                        <path fill='currentColor'
                              d="M602.4,357.6c-89.3,55.8-154.4,127.8-195.5,216s-107.3,117.4-198.7,87.5c-91.4-29.9-136.4-90.2-135-180.9
			c1.4-90.7-16-166.1-52.4-226.3s-25-108,34-143.6s118.3-67.9,177.7-96.7S335.6,1.7,363.7,64.4C391.8,127,460.9,177.6,571,216.1
			S691.6,301.8,602.4,357.6z"/>
                    </clipPath>

                </defs>
        <g filter='url(#grain)' clip-path='url(#shape)'>
		<path class="st0" d="M602.4,357.6c-89.3,55.8-154.4,127.8-195.5,216s-107.3,117.4-198.7,87.5c-91.4-29.9-136.4-90.2-135-180.9
			c1.4-90.7-16-166.1-52.4-226.3s-25-108,34-143.6s118.3-67.9,177.7-96.7S335.6,1.7,363.7,64.4C391.8,127,460.9,177.6,571,216.1
			S691.6,301.8,602.4,357.6z"/>
	</g>
</g>
    <g id="Слой_2">
	<g>
		<defs>
			<rect id="SVGID_3_" x="135.2" y="299.3" width="237.3" height="373.1"/>
            <clipPath id="clip0">
            <path width="353" height="555" fill="white" class="svg-elem-10 pszaAeEh_9"
                  d="M0 0 L353 0 L353 555 L0 555 Z"/>
        </clipPath>
		</defs>
        <g >
			<path d="M327.7,407.7c1.5-0.8,2.9-1.8,4.1-2.9c1.8-1.6,3.2-3.5,4.3-5.7c1.3,4.2,1.6,8.7,0.8,13
				c-0.7,4.4-2.4,8.5-5,12.1c-5,6-11.5,10.6-18.9,13.2c-2.8,1-5.7,1.7-8.6,2.1c3.5-2.9,7.1-6,10.6-9.2c3.6-3.2,7.5-6.7,11-10
				c0.4-0.5,0.8-1.3,0.5-1.9c-0.3-0.6-4.5-1.4-9.9-1.2c-3.2,0-6.4,0.4-9.5,1.1c-1.3,0.3-2.7,0.7-4,1.1c2,0.5,4.2,1,6.6,1.4
				c5.1,0.8,10.2,1,15.3,0.5c1.5-2.2,2.4-4.8,2.5-7.5c0-1.4-0.2-2.8-0.5-4.2c-0.2-0.7-0.5-1.3-0.6-1.7c-3.8,1-7.5,2.2-11.1,3.8
				c-3.7,1.7-7.3,3.7-10.6,6.1c3.8-0.6,7.5-1.6,11-3c4.2-1.6,9.2-4.2,9.4-3.8c0.2,0.3-2,1.2-2.5,3.3c-0.2,0.9-0.2,1.8,0,2.6
				c-4.3-0.3-8.6,0-12.8,0.8c-5.2,1.1-8.6,2.7-15.2,3.1c-1.9,0.1-3.8,0.1-5.6,0c-0.4-0.4-0.8-0.9-1-1.4c-2.3-4.9,4.9-12.6,5.4-13.2
				c11.9-12.6,38.8-2.7,41-9.5c0.5-1.5-0.6-3-0.8-3.3c-3.7-5.2-22.5-3.9-32.6,5.7c-2.3,2.2-6,6.5-12.1,7.5c-1.5,0.3-3.1,0.2-4.6-0.2
				c-1.3-0.5-3.6-2.1-5.9-14.9c-1.1-5.8-1.4-11.8-1-17.7c0.2-3.4,0.5-5.8,2.3-6.9c1.8-1.1,4-0.5,5.4,0.8c3.3,3,1.8,12.3-3.2,14.4
				c-3.6,1.4-8-1-10.4-3.4c-5.3-5.8-4.3-17.3,2.5-29.1c4-1.6,8.3-2.4,12.7-2.4c8.2,0.1,11.7,3.6,19.5,4.2c3.8,0.3,9.3-0.1,16-3.2
				c2.2,0.8,4.3,2,6.2,3.4c7.7,5.9,5.8,12.5,13.2,22.4c4.6,6.2,7.9,7.2,8.2,11.6c0.3,4.5-2.3,8.1-4.5,10.6c0,0.2,0.1,0.3,0.2,0.4
				c0.1,0.1,0.2,0.2,0.4,0.3c0.7,0.5,1.8,0.3,2.7-0.4c0.3,3-0.1,6-1,8.9c-0.2,0.8-0.5,1.5-0.9,2.3c-0.5-1.1-0.9-2.3-1.3-3.4
				c-0.6-2.3-0.8-4.7-0.5-7.1c1-0.2,2-0.5,2.9-1c1.1-0.5,2-1.3,2.8-2.2c0.6-1.1,1-2.3,1.1-3.6c0.1-1.1-0.1-2.2-0.4-3.3
				c-0.8,1.9-1.9,3.8-3.1,5.5c-0.9,1.3-1.9,2.5-3,3.6c-0.5,2.2-0.5,4.5-0.1,6.8c0.5,2.3,1.5,4.4,2.9,6.3c2.7,4,6.9,10.1,14.9,15.4
				c3,2,4.5,2.5,6.1,4.7c1.6,2.3,3.7,6.7,2.1,9.8s-4.5,1.5-7.5,4.7c-3,3.2-3.6,7.6-2.5,11.5c0.6,1.9,1.6,3.7,3.1,5.1l-1,4.5
				c0.2-1-0.1-2-0.7-2.9c-0.6-0.8-1.6-1.4-2.6-1.6c-0.6,1.1-1.4,2.1-2.3,2.9c-1.5,1.4-2.8,1.9-5.9,3.1c-6.9,2.7-8.6,3.8-9.2,5.5
				c-0.2,0.6-0.3,1.3-0.2,1.9h1.6c2.3-0.1,3.6-1.3,6.7-2.7c0.9-0.4,1.8-0.8,2.7-1.1c5.5-2,7.3-3.6,7.9-4.7c0.6-1.1,0.5-0.9,0.9-0.9
				c0.4,0,1.4,1.3,1.4,2.3c0.1,2.3-2.6,3.8-2.8,4c2.8,0.7,4.7,3,4.5,5.2c0,0.7-0.2,1.3-0.6,1.9c-0.3,0.6-0.8,1.1-1.3,1.5
				c-1.2,0.7-2.5,0.9-3.8,0.7c-2.3-0.3-14.9-2.2-14.7-5.3c0.1-3.2,6.3-4.1,11-4.2c1.3,0,2.6,0.1,3.8,0.3"/>
            <path class="st2" d="M370.5,432.2c-1.1-0.1-2.1,0.2-3.1,0.6c-0.9,0.5-1.7,1.2-2.3,2.1c-0.6,0.9-0.9,1.9-0.9,3
				c0,1.1,0.2,2.1,0.7,3.1c-1.2,1.2-2.6,2.3-4,3.3c-1.9,1.3-3.9,2.4-6,3.4c-1.6,0.2-3.2-0.1-4.7-0.8c-1-0.5-1.9-1.2-2.6-2.1
				c-0.5-0.7-0.8-1.5-1-2.4c-0.2-0.9-0.2-1.7,0-2.6c0.3-1,0.8-1.9,1.4-2.6c0.7-0.7,1.5-1.3,2.5-1.7"/>
            <path class="st2" d="M363.6,438c-1.9,0.7-3.6,1.8-5,3.3c-1.4,1.5-2.4,3.2-2.9,5.1"/>
            <path class="st2" d="M361.2,471.6c0.6,1.7,0.8,3.5,0.7,5.3c-0.1,2.1-0.6,4.1-1.6,6c-0.5,1.8-0.8,3.7-0.9,5.6
				c-0.2,6,2.3,8.6,2.3,12.1c0,3.4-1.9,7.2-10.5,12.3c-9.7,0.1-18.7-0.3-26.7-0.9c-8-0.6-15.4-1.4-21.6-2.3
				c-23.4-3.4-31.3-7.2-36.1-13.1c-3.7-4.6-6.8-9.5-9.5-14.7c-1.9-4-2.6-6.2-5.3-11.1c-3.3-6-5.2-7.8-6.6-10.3
				c-2.4-4.5-3.6-12.2,3.1-26.5c12.9,16.5,30.3,29,50.1,35.7c7.2,0.3,13,0.2,16.9,0c8.2-0.4,12.8-1.3,19,0.5
				c2.9,0.8,5.6,2.1,8.2,3.8"/>
            <path class="st2" d="M322.3,512.8c-2.5,1.5-4.6,3.7-6,6.3c-4,7.5,0.8,13.7-1.2,22.5c-1.3,5.8-4.3,6.8-10.8,15.3
				c-2.9,3.7-5.5,7.7-7.7,11.9c-5.4,10.4-6.1,15-8.2,15.1c-2.1,0.1-2.5-11.3-8.6-22.1c-6.2-10.8-17.8-16.2-41.3-27.5
				c-6.9-3.3-16-7.4-26.8-11.6c0.8-5.2,2.7-21.6-7.1-37.7c-4-6.6-9.4-12.2-15.8-16.6c-5.1-6.5-9.7-13.5-13.6-20.8
				c-2.9-5.3-3.8-8.1-4.4-9.9c-2.4-7.4-0.7-8.4-2.9-13.2c-3.2-7-7.5-6.8-8.3-12.5c-0.3-2.6,0.3-4.5-1-7.5c-0.8-1.8-2-3.4-3.4-4.7
				c-1-2.4-1.3-5-1-7.6c0.3-2.5,1.1-3.4,1.9-6c1.9-5.8-0.7-7.3,1.1-12.5c1.1-3.4,2.9-6.1,5.3-9.6c3.3-5,5.3-6.7,4.7-9.1
				c-0.5-2.4-3.2-2.5-3.5-4.9c-0.1-1.2,0.4-2.4,3.8-6.3c1.5-1.7,3.8-4.1,6.6-6.7c-3.1,4.9-4.1,7.8-3.2,8.7c0.9,0.9,6.9-1.6,16.5-8.7
				c-0.6-1-0.9-2.2-0.7-3.4c0.8-3.6,7.2-4.5,14.2-6.7c9.6-2.9,11-5.1,14.9-6.9c1.7-0.8,3.5-1.3,5.3-1.6c10-2.2,14.8,1.7,21.1-1.5
				c2.6-1.4,1.7-2.1,6.7-5.4c3.4-2.3,5.6-3.8,8.4-4.6c6.3-1.8,7.6,1.1,15.7,0c5.6-0.8,10.6-3.1,12.3-3.8c5.1-2.3,5.4-3.4,7.8-3.4
				c4.9,0.1,5.4,5.2,11.7,6.9c4.9,1.3,6.9-1.2,10.6,0.9c3.6,2.1,4.4,5.3,4.9,6.8c2.1,6-1.5,7.9-0.4,14.2c1.2,7.3,6.9,9.7,5.7,14.9
				c-0.5,1.9-1.6,3.6-3.1,4.8c-2.3-0.9-4.4-2.2-6.4-3.6c-12.8-9.4-10.6-23.8-20.5-31.1c-3.2-2.3-10.3-9.3-18.4-3.6l-7.7,0.9
				c-4.6,4.7-9.5,9.1-14.7,13.1c-6.9,5.3-10.5,8-14.9,9c-7.2,1.6-10.1-1.5-19.3-1.5c-5.9,0-11.8,1.3-17.2,3.6l0,0
				c-4.2,2.1-8.2,4.5-12.1,7.1c-5.4,2.7-22.8,22.4-23.7,50.2c-0.7,19.3,7.1,32.7,6.2,33c-0.8,0.3-11.5-15-9.9-34.1
				c1.5-19.1,14-35.1,28.3-43.4l4.4-2.3l3.2-1.6c3.4-1.6,7.7-3.4,9.5-4c6.2-2,14.1-0.3,18.1,0.9c4,1.2,11,3.6,16.9,1
				c6-2.5,7.5-7.3,13.7-14.9c4.7-5.6,9.9-10.7,15.8-15.1c-3.7,3.5-7.2,7.2-10.4,11.2c-4.9,6.2-7.4,9.4-8.2,13.6
				c-1.3,7.3,2.7,13.8,5.2,17.1c1.5-2.9,2.8-5.9,3.8-9c2.2-6.9,1.4-8.8,2.8-12.5c3.2-7.9,13.9-14.6,20.2-11.6
				c4.4,2.1,5.3,8.3,5.6,9.8c0.6,4.1,0,10.8-3.5,12.3c-3.5,1.4-6.4-4.4-12.1-3.9c-2.7,0.2-4.3,2-12.6,12.5
				c-8.4,10.6-7.5,9.6-8.7,10.8c-5.1,5.1-11.4,8.9-18.3,10.9c-15.4,4-21.6-8.7-35.2-6.4c-9.5,1.6-16.5,10.8-20,14.8
				c-5.3,6.2-7.4,11.2-8,10.8c-0.6-0.3,4.7-15.4,12-29.2c7.3-13.8,10.4-15.6,12.7-16.8c3.6-2,8.9-2.5,19.4-3.5
				c10.5-1,12.4-0.2,14.1,0.4c4.3,1.5,5.3,3.4,9.1,3.8c6.1,0.6,11.5-3.6,11.3-4.1c-0.2-0.5-5.5,2.2-23.1,7.7
				c-20.8,6.5-24.4,6.2-30.6,10.6c-8.2,6-11.7,14-15.1,21.4c-8.8,19.3-7.1,37.9-6.2,38c0.8,0.1,0.5-7.4,5.3-17.2
				c4.1-8.5,9.1-13.2,8.8-13.4c-0.3-0.2-7.2,4.7-10.5,13.3c-2.3,6-2.2,12.5-2.2,18.6c0.1,3.6,0.3,7.1,0.4,7.6
				c0.7,8.8,2.1,13.3,1.2,13.7c-1,0.4-4.7-5.9-4.7-5.8c-0.1,0.1,2.2,4.4,8.4,13.9c2.7,4.1,12.3,18.9,13.3,18.4
				c1-0.5-8-10.7-11.7-25.3c-0.4-1.4-0.7-2.9-0.9-4.3c-3.8-21.7,5.5-50.6,23.5-58c12.9-5.3,20.9,4.2,34.4-2.9
				c13.5-7.1,16.5-22.3,19.4-21.4c2.9,0.9,2.3,8.4-2.9,36c-8.6,12.3-21.7,20.8-36.4,23.8c6.1-3.6,12.4-7.6,18.8-11.9l9.7-6.7
				c-5.7,2.1-11.6,3.6-17.6,4.5c-7.3,1.1-14.7,1.3-22,0.7l7-2.7c11.5-4,16.1-4.1,24.3-7c10.3-3.6,16.5-8.1,16.5-8.2
				c0-0.1-14.1,8.2-33.2,11.4c-1.5,0.3-9.5,1.6-9.8,0.5c-0.3-1,10.8-5.5,21.1-9c-4.9-0.1-24.5,0.4-38.5,15.1
				c-15.1,15.9-12.9,39.3-12.6,39.4s0.5-13.7,10-26.7c3.7-5,8.4-9.4,13.6-12.8"/>
            <path class="st2" d="M189.2,446.4c0.6-2.9,2-5.5,4-7.6c3-3.1,6.7-4,6.4-5.9c-0.2-1.9-2.7-1.8-2.7-2.8s4.7-2.8,13.9-3.6
				c14.3-1.2,17.6,1.2,24.3-0.8c4.3-1.2,9.8-4,15.5-11.6c-8.4-0.7-16.9-0.2-25.2,1.5c-5.5,1.2-10.9,2.9-16,5.2
				c-3.4,2.8-6.2,6.2-8.5,9.9c-1,1.8-8.8,15.1-4.5,29.2c2.6,8.6,6.8,7.9,11.5,20.3c2.9,7.6,3.4,13.2,4.5,13.2
				c1.2-0.1,1.8-7.8,1.5-13.5c-0.3-7.9-0.5-10.8-2.3-13.2c-1.9-2.3-1.5-1.2-3.2-3.2c-1.9-2.3-3.4-4.9-4.5-7.7
				c-2.1-5.9-1.6-18.4,6.9-22.8c5.8-2.9,13.1-0.8,17.2,2.5c4.1,3.3,5.2,6.8,6.6,10.1c2.2,5.1,1.4,6.3,3.5,10.6
				c2.9,5.9,7.6,9.8,8.2,9.4c0.5-0.4-2.8-3.5-4.4-9c-3.4-11.4,3.6-22,4.4-23.1c0.8-1.1,0.9-1,6.8-7.3c4.7-5,6.8-7.5,13.4-15
				l12.6-14.3"/>
            <path class="st2" d="M218.4,461.8c-0.2-1.5,0-3.1,0.7-4.5c1-2.1,2.7-2.8,4.7-4.7c1.8-1.7,3.3-3.6,4.5-5.8
				c0.4,0.7,3.3,5.3,1.6,10.8c-0.8,2.9-2.7,5.4-5.3,7c-1.2-1.6-2-3.5-2.5-5.5c-1.4-5.6,1.2-8.8-1-13.2c-0.5-0.9-1.3-2.4-2.8-2.8
				c-1.5-0.4-4.1,1.2-5,2.5c-3.8,5.3,1.6,19.3,9.7,21.6c1.4,0.4,1.7,0.1,11.9,0h6.9c-0.1-4.5-1.4-6.8-2.8-8.1
				c-1.4-1.3-3-1.4-5.1-3.6c-2.1-2.1-1.9-3.2-3.4-6.2c-1.3-2.7-3-5.2-5-7.4c-2.5-2.7-8.5-7.3-12.8-5.7c-4.3,1.6-6.4,10.7-4.9,17.1
				c1.8,7.9,8.8,14,16,16.4c11.4,3.9,24.6-1,25.2,1.2c0.2,0.9-1.2,3.8-1.8,5.1c0,0.1-0.1,0.1-0.1,0.2s-2.7,2.3-8.2,2.5
				c-3.6,0.1-12.5,0.3-20.4-5.9c-3.5-2.7-5.1-5.5-6-5c-0.9,0.5,1.1,5.3,1.6,12c0.4,5.2-0.6,7.1-1.5,13.5c-1.8,12.7,1,15.1-0.6,27
				c-0.6,4.9-1.8,9.8-3.5,14.5c-1.8,0.6-3.5,1.4-5,2.4c-6.8,4.7-5.1,11.1-11.4,21.7c-4.3,7.3-9.1,11-7.5,13.5
				c0.6,1.2,2.3,1.5,3.5,1.6c3,0.8,8,2.1,14.1,3.2c30.5,5.8,44.4,0.6,56.9,11.1c4.9,4.1,8.2,9.5,9.5,11.6c3.7,6.2,6.2,13.1,7.3,20.3
				"/>
            <path class="st2" d="M249.2,568.1c4.8,5.4,9.2,11.2,13.1,17.3c12.1,18.7,15.7,34,19.7,33.3c1.8-0.3,2.5-3.8,4-10.8
				c1.7-7.9,2.4-16,2.3-24.1c-1.6,6.6-2.4,13.3-2.5,20.1c0,4.5,0.3,12.9,6.3,35.2c2.1,7.7,5.1,18,9.3,30
				c-4.8-8.8-9.6-18.4-14.3-28.6c-6.2-13.7-11.3-26.8-15.6-39"/>
            <path class="st3" d="M192,584c4.1-1.7,4.7-2.9,4.7-3.7c0-2.7-8-4.5-11.3-5.2c-12,13.5-18.8,23-22.9,29.4c-3,4.9-6.4,9.7-10,14.2
				c-6.4,7.7-7.3,6.8-9,10.5"/>
		</g>
	</g>
</g>
</svg>
