<svg xmlns="http://www.w3.org/2000/svg" viewBox="0 0 1440 320">

    <defs>
        <filter id='grain' x='-50vw' y='-50vh' width='100vw' height='100vh'>

            <feFlood flood-color='#ffffff' result='neutral-gray'/>
            <feTurbulence in='neutral-gray' type='fractalNoise' baseFrequency='2.5' numOctaves='100'
                          stitchTiles='stitch' result='noise'/>
            <feColorMatrix in='noise' type='saturate' values='0' result='destaturatedNoise'/>
            <feComponentTransfer in='desaturatedNoise' result='theNoise'>
                <feFuncA type='table' tableValues='0 0 0.5 0'/>
            </feComponentTransfer>
            <feBlend in='SourceGraphic' in2='theNoise' mode='soft-light' result='noisy-image'/>

        </filter>

        <clipPath id='shape'>
            <path fill='currentColor'
                  d="M0 0L48 8.875C96 17.9167 192 35.4167 288 53.3333C384 71.25 480 88.75 576 82.2083C672 75.4167 768 44.5833 864 26.6667C960 8.75 1056 4.58333 1152 11.125C1248 17.9167 1344 35.4167 1392 44.4583L1440 53.3333V120H1392C1344 120 1248 120 1152 120C1056 120 960 120 864 120C768 120 672 120 576 120C480 120 384 120 288 120C192 120 96 120 48 120H0V0Z"/>
        </clipPath>

    </defs>
    <g filter='url(#grain)' clip-path='url(#shape)'>
        <path fill="#F9C023" fill-opacity="1"
              d="M0 0L48 8.875C96 17.9167 192 35.4167 288 53.3333C384 71.25 480 88.75 576 82.2083C672 75.4167 768 44.5833 864 26.6667C960 8.75 1056 4.58333 1152 11.125C1248 17.9167 1344 35.4167 1392 44.4583L1440 53.3333V120H1392C1344 120 1248 120 1152 120C1056 120 960 120 864 120C768 120 672 120 576 120C480 120 384 120 288 120C192 120 96 120 48 120H0V0Z"/>
    </g>
</svg>
