<svg width="353" height="555" viewBox="0 0 353 555" fill="none" xmlns="http://www.w3.org/2000/svg" style="">
    <g clip-path="url(#clip0)">
        <path d="M286.398 161.251C288.62 160.062 290.677 158.589 292.518 156.868C295.158 154.463 297.336 151.596 298.943 148.408C300.85 154.685 301.281 161.317 300.202 167.788C299.122 174.259 296.563 180.394 292.722 185.713C285.285 194.687 275.558 201.484 264.572 205.386C260.418 206.89 256.107 207.916 251.72 208.443C256.922 204.061 262.226 199.474 267.529 194.785C272.833 190.096 278.647 184.796 283.848 179.904C284.46 179.088 285.072 177.967 284.664 177.05C284.256 176.132 277.933 174.909 269.875 175.215C265.137 175.233 260.416 175.78 255.8 176.846C253.8 177.283 251.826 177.828 249.884 178.477C252.808 179.292 256.072 180.005 259.676 180.617C267.19 181.87 274.836 182.144 282.42 181.432C284.674 178.107 285.978 174.231 286.194 170.22C286.121 168.127 285.848 166.044 285.378 164.003C285.072 162.983 284.664 162.066 284.46 161.455C278.797 162.873 273.268 164.783 267.937 167.163C262.41 169.652 257.148 172.691 252.23 176.234C257.848 175.329 263.353 173.825 268.651 171.749C274.873 169.303 282.318 165.532 282.624 166.041C282.93 166.551 279.667 167.774 278.851 170.934C278.493 172.2 278.493 173.541 278.851 174.807C272.501 174.373 266.121 174.784 259.88 176.03C252.128 177.661 247.029 180.107 237.339 180.617C234.555 180.825 231.76 180.825 228.976 180.617C228.352 180.03 227.835 179.341 227.446 178.578C223.978 171.342 234.687 159.824 235.503 159.008C253.25 140.253 293.232 154.931 296.496 144.84C297.209 142.598 295.578 140.355 295.272 139.948C289.764 132.201 261.818 134.138 246.723 148.408C243.255 151.669 237.747 158.091 228.772 159.62C226.502 160.069 224.158 159.964 221.938 159.314C220 158.499 216.635 156.154 213.167 137.196C211.558 128.528 211.044 119.693 211.637 110.898C211.943 105.904 212.453 102.234 215.105 100.603C217.756 98.9724 221.122 99.8898 223.162 101.724C228.058 106.209 225.814 119.97 218.47 123.129C213.167 125.27 206.537 121.702 203.069 118.033C195.114 109.471 196.746 92.3471 206.741 74.7135C212.738 72.3065 219.148 71.0946 225.61 71.146C237.849 71.2479 243.051 76.5482 254.576 77.3636C260.186 77.8733 268.345 77.2617 278.443 72.6749C281.779 73.8888 284.91 75.6076 287.724 77.7713C299.147 86.5372 296.394 96.3223 307.307 111.102C314.14 120.377 319.036 121.804 319.546 128.43C320.056 135.055 316.078 140.457 312.815 144.127C312.878 144.356 312.993 144.568 313.153 144.745C313.312 144.922 313.511 145.059 313.732 145.146C314.752 145.859 316.384 145.554 317.812 144.534C318.22 149.002 317.734 153.506 316.384 157.785C316.022 158.936 315.579 160.06 315.058 161.149C314.311 159.49 313.664 157.788 313.121 156.052C312.247 152.591 311.971 149.006 312.305 145.452C313.834 145.215 315.315 144.733 316.69 144.025C318.283 143.219 319.703 142.111 320.872 140.763C321.793 139.135 322.349 137.327 322.504 135.463C322.632 133.807 322.423 132.143 321.892 130.57C320.646 133.438 319.108 136.171 317.302 138.724C315.955 140.643 314.454 142.45 312.815 144.127C312.041 147.442 312.007 150.887 312.713 154.218C313.503 157.615 314.997 160.81 317.098 163.595C321.178 169.507 327.4 178.578 339.333 186.427C343.821 189.383 345.962 190.096 348.41 193.46C350.858 196.824 353.918 203.449 351.47 208.036C349.022 212.623 344.739 210.278 340.251 215.069C335.763 219.859 334.845 226.383 336.579 232.193C337.453 235.081 339.03 237.708 341.169 239.837L339.741 246.463C339.976 244.957 339.609 243.42 338.721 242.182C337.757 240.956 336.379 240.123 334.845 239.837C333.94 241.48 332.768 242.961 331.377 244.22C329.134 246.361 327.196 247.074 322.606 248.807C312.305 252.884 309.857 254.413 308.939 256.961C308.66 257.885 308.556 258.853 308.633 259.815H310.979C314.446 259.612 316.282 257.879 320.872 255.738C322.166 255.119 323.494 254.575 324.85 254.107C333.009 251.151 335.661 248.807 336.579 247.176C337.497 245.545 337.293 245.851 337.905 245.851C338.517 245.851 339.945 247.788 339.945 249.317C340.149 252.68 336.069 255.025 335.763 255.229C339.945 256.248 342.699 259.713 342.495 262.975C342.43 263.958 342.149 264.915 341.674 265.778C341.198 266.641 340.538 267.389 339.741 267.97C338.008 268.947 335.994 269.306 334.029 268.989C330.561 268.581 311.897 265.727 312.101 261.038C312.305 256.35 321.484 254.923 328.522 254.821C330.438 254.795 332.352 254.966 334.233 255.331"
              stroke="#71657A" stroke-width="3" stroke-miterlimit="10" class="svg-elem-1 pszaAeEh_0"></path>
        <path d="M349.94 197.741C348.362 197.644 346.787 197.97 345.377 198.685C343.968 199.4 342.775 200.478 341.922 201.808C341.07 203.139 340.588 204.673 340.527 206.251C340.466 207.83 340.829 209.396 341.577 210.788C339.728 212.562 337.751 214.197 335.661 215.68C332.878 217.638 329.905 219.311 326.788 220.675C324.405 220.994 321.982 220.566 319.852 219.452C318.335 218.709 317.009 217.628 315.976 216.292C315.238 215.216 314.722 214.004 314.459 212.726C314.197 211.448 314.192 210.131 314.446 208.851C314.849 207.415 315.586 206.094 316.596 204.996C317.607 203.898 318.862 203.054 320.26 202.532"
              stroke="#71657A" stroke-width="3" stroke-miterlimit="10" class="svg-elem-2 pszaAeEh_1"></path>
        <path d="M339.741 206.303C336.911 207.33 334.361 209.006 332.295 211.196C330.274 213.38 328.774 215.993 327.91 218.84"
              stroke="#71657A" stroke-width="3" stroke-miterlimit="10" class="svg-elem-3 pszaAeEh_2"></path>
        <path d="M336.171 256.248C337.032 258.805 337.378 261.507 337.191 264.198C337.029 267.284 336.23 270.303 334.845 273.066C334.063 275.753 333.618 278.526 333.519 281.322C333.213 290.19 336.885 294.165 336.885 299.262C336.885 304.358 334.029 309.964 321.28 317.609C306.797 317.711 293.538 317.201 281.604 316.284C269.671 315.366 258.656 314.143 249.476 312.818C214.697 307.824 202.967 302.116 195.828 293.35C190.395 286.527 185.646 279.187 181.651 271.435C178.795 265.422 177.775 262.16 173.797 254.923C168.901 246.055 166.046 243.303 164.006 239.634C160.436 233.008 158.702 221.49 168.596 200.289C187.717 224.896 213.639 243.359 243.153 253.394C253.862 253.904 262.532 253.7 268.243 253.394C280.381 252.782 287.214 251.457 296.495 254.209C300.804 255.449 304.897 257.339 308.633 259.815"
              stroke="#71657A" stroke-width="3" stroke-miterlimit="10" class="svg-elem-4 pszaAeEh_3"></path>
        <path d="M278.239 317.609C274.469 319.886 271.372 323.122 269.263 326.986C263.348 338.198 270.487 347.372 267.529 360.419C265.591 369.083 261.206 370.51 251.516 383.149C247.144 388.663 243.286 394.565 239.991 400.782C231.933 416.276 230.914 423.105 227.854 423.207C224.794 423.309 224.182 406.388 215.003 390.284C205.823 374.179 188.484 366.127 153.602 349.41C143.301 344.518 129.838 338.402 113.723 332.083C114.947 324.336 117.701 299.975 103.218 276.022C97.2086 266.219 89.1764 257.81 79.657 251.355C72.0816 241.616 65.2945 231.288 59.3603 220.471C55.0765 212.521 53.6487 208.444 52.8327 205.793C49.2629 194.785 51.8128 193.256 48.549 186.223C43.8573 175.826 37.3297 176.132 36.2078 167.57C35.6978 163.697 36.6157 160.843 34.6779 156.358C33.4749 153.721 31.7385 151.361 29.5782 149.427C28.1263 145.844 27.6002 141.953 28.0483 138.113C28.4562 134.342 29.6802 133.118 30.9041 129.245C33.6579 120.581 29.8841 118.441 32.5359 110.592C34.1678 105.598 36.9217 101.521 40.3895 96.3223C45.2852 88.8816 48.243 86.3333 47.4271 82.7658C46.6111 79.1983 42.6333 78.9945 42.2253 75.427C42.0214 73.5923 42.8373 71.8595 47.937 66.0496C50.1809 63.5014 53.5467 59.9339 57.7284 56.0606C53.1387 63.3995 51.6088 67.6804 52.9347 69.0055C54.2606 70.3306 63.1341 66.6612 77.5152 56.0606C76.5974 54.5677 76.2362 52.799 76.4952 51.0661C77.7192 45.6639 87.2045 44.3388 97.6079 41.0771C111.887 36.7961 113.927 33.4325 119.843 30.7824C122.388 29.6553 125.059 28.8341 127.798 28.3361C142.689 25.0744 149.829 30.8843 159.11 26.0937C162.986 24.0551 161.66 23.0358 169.003 18.0413C174.103 14.5758 177.265 12.4353 181.549 11.2121C190.932 8.562 192.87 12.843 204.905 11.2121C213.167 10.0909 220.714 6.62536 223.264 5.50414C230.812 2.14051 231.321 0.509644 234.891 0.509644C242.235 0.7135 242.949 8.25619 252.23 10.8044C259.472 12.741 262.532 8.96971 267.937 12.1295C273.343 15.2893 274.465 20.0799 275.179 22.2204C278.239 31.1901 272.935 33.9422 274.567 43.3196C276.403 54.2259 284.766 57.6915 283.032 65.54C282.326 68.3566 280.713 70.8634 278.443 72.6749C275.07 71.2713 271.884 69.4569 268.957 67.2727C249.884 53.3086 253.25 31.9036 238.461 20.9972C233.769 17.5317 223.162 7.23692 211.127 15.595L199.601 16.9201C192.768 23.926 185.44 30.4322 177.673 36.3884C167.372 44.3388 162.068 48.3141 155.438 49.843C144.729 52.2893 140.343 47.6006 126.676 47.6006C117.864 47.642 109.153 49.4802 101.076 53.0028V53.0028C94.8534 56.1383 88.8249 59.6441 83.0228 63.5014C74.9653 67.5785 49.1609 96.832 47.835 138.113C46.8151 166.857 58.3404 186.733 57.1165 187.14C55.8925 187.548 40.0835 164.818 42.3274 136.38C44.5712 107.942 63.134 84.1929 84.3487 71.7576L90.8763 68.3939L95.568 66.0496C100.566 63.7052 107.093 61.0551 109.745 60.1378C118.925 57.1818 130.756 59.73 136.671 61.4628C142.587 63.1956 152.99 66.7631 161.864 62.9917C170.737 59.2204 172.981 52.1873 182.263 40.7714C189.189 32.4156 197.061 24.8906 205.721 18.3471C200.219 23.532 195.073 29.0828 190.32 34.9614C182.977 44.135 179.305 48.9256 178.183 55.1432C176.245 66.0496 182.263 75.7328 185.934 80.5234C188.194 76.2463 190.071 71.778 191.544 67.1708C194.808 56.876 193.584 54.022 195.726 48.6198C200.519 36.7961 216.328 26.9091 225.712 31.3939C232.239 34.4518 233.667 43.7273 234.075 45.9697C234.993 52.0854 234.075 62.0744 228.874 64.2149C223.672 66.3554 219.388 57.6915 210.821 58.405C206.843 58.7108 204.497 61.3609 192.054 77.0578C179.611 92.7548 180.835 91.3278 179.101 93.0606C171.547 100.686 162.175 106.263 151.869 109.267C129.022 115.179 119.741 96.3223 99.4438 99.686C85.3687 102.03 74.8633 115.689 69.6617 121.702C61.7062 130.876 58.6463 138.317 57.7284 137.807C56.8104 137.298 64.664 114.873 75.5773 94.3857C86.4906 73.8981 91.0803 71.2479 94.4461 69.4132C99.8518 66.4573 107.705 65.6419 123.31 64.2149C138.915 62.7879 141.771 63.9091 144.219 64.8264C150.645 67.0689 152.174 69.9229 157.682 70.5344C166.76 71.4518 174.817 65.1322 174.511 64.4187C174.205 63.7052 166.352 67.6805 140.139 75.8347C109.235 85.5179 103.83 85.0083 94.6501 91.5317C82.4109 100.399 77.2092 112.325 72.2115 123.333C59.1563 151.975 61.7061 179.7 62.93 179.904C64.154 180.107 63.746 168.895 70.7836 154.32C76.9032 141.68 84.3487 134.647 83.9408 134.342C83.5328 134.036 73.2314 141.273 68.3358 154.116C64.97 163.085 65.0719 172.667 65.0719 181.738C65.1739 187.141 65.5819 192.339 65.6839 193.052C66.7038 206.099 68.8457 212.826 67.4178 213.438C65.9899 214.05 60.4822 204.672 60.3802 204.774C60.2782 204.876 63.644 211.298 72.9255 225.466C76.9032 231.581 91.2843 253.598 92.7122 252.782C94.1401 251.967 80.881 236.882 75.2713 215.171C74.7116 213.056 74.269 210.913 73.9454 208.749C68.3358 176.438 82.1049 133.526 108.929 122.518C128.104 114.669 140.037 128.837 160.13 118.237C180.223 107.636 184.71 85.1102 188.994 86.4353C193.278 87.7603 192.462 98.9725 184.71 139.948C171.853 158.249 152.475 170.941 130.552 175.419C139.629 170.017 149.013 164.105 158.498 157.785L172.981 147.796C164.476 150.862 155.7 153.115 146.769 154.523C135.932 156.132 124.945 156.474 114.029 155.543L124.432 151.567C141.567 145.656 148.401 145.452 160.538 141.171C175.837 135.871 185.118 129.143 185.118 128.939C185.118 128.736 164.21 141.171 135.754 145.86C133.51 146.267 121.576 148.204 121.168 146.675C120.76 145.146 137.283 138.521 152.582 133.22C145.341 133.118 116.171 133.832 95.3641 155.747C72.9255 179.394 76.1892 214.253 76.5972 214.355C77.0052 214.457 77.4131 193.97 91.4883 174.705C97.0635 167.194 103.937 160.739 111.785 155.645"
              stroke="#71657A" stroke-width="3" stroke-miterlimit="10" class="svg-elem-5 pszaAeEh_4"></path>
        <path d="M80.371 218.84C81.3018 214.589 83.3834 210.675 86.3886 207.526C90.8763 202.939 96.282 201.512 95.976 198.76C95.67 196.008 91.9982 196.11 91.9982 194.581C91.9982 193.052 98.9339 190.402 112.703 189.179C134.02 187.344 138.813 190.912 148.809 188.058C155.132 186.325 163.394 182.044 171.859 170.832C159.34 169.733 146.726 170.489 134.428 173.074C126.234 174.858 118.239 177.453 110.561 180.821C105.558 185.016 101.284 190.01 97.9139 195.601C96.384 198.251 84.8587 218.127 91.1823 239.022C95.0581 251.763 101.28 250.744 108.317 269.193C112.601 280.507 113.315 288.865 115.049 288.763C116.783 288.661 117.701 277.143 117.293 268.683C116.885 256.961 116.579 252.579 113.825 249.113C111.071 245.647 111.581 247.278 109.133 244.424C106.305 240.957 104.034 237.071 102.402 232.906C99.2398 224.141 99.9538 205.488 112.703 199.066C121.372 194.683 132.184 197.945 138.303 202.837C144.423 207.73 146.055 212.928 148.095 217.923C151.359 225.567 150.135 227.3 153.296 233.62C157.682 242.386 164.618 248.196 165.434 247.584C166.25 246.972 161.252 242.386 158.906 234.231C153.908 217.311 164.312 201.512 165.434 199.882C166.556 198.251 166.76 198.353 175.531 188.975C182.569 181.534 185.628 177.865 195.42 166.653L214.187 145.35"
              stroke="#71657A" stroke-width="3" stroke-miterlimit="10" class="svg-elem-6 pszaAeEh_5"></path>
        <path d="M123.718 241.774C123.403 239.48 123.757 237.144 124.738 235.047C126.268 231.887 128.716 230.868 131.776 228.014C134.453 225.529 136.725 222.64 138.507 219.452C139.119 220.471 143.403 227.3 140.853 235.557C139.605 239.87 136.808 243.571 133 245.953C131.24 243.509 129.992 240.736 129.328 237.799C127.288 229.441 131.164 224.65 127.798 218.127C127.084 216.802 125.86 214.559 123.616 213.948C121.372 213.336 117.497 215.782 116.171 217.719C110.561 225.568 118.619 246.361 130.654 249.827C132.796 250.438 133.204 250.03 148.299 249.827H158.498C158.396 243.201 156.356 239.736 154.316 237.799C152.277 235.862 149.829 235.658 146.769 232.499C143.709 229.339 144.015 227.708 141.771 223.325C139.778 219.348 137.275 215.648 134.326 212.317C130.552 208.342 121.678 201.411 115.253 203.857C108.827 206.303 105.767 219.758 107.909 229.237C110.561 241.061 121.066 250.132 131.674 253.7C148.605 259.51 168.289 252.171 169.207 255.535C169.513 256.86 167.474 261.242 166.556 263.077C166.556 263.179 166.454 263.281 166.454 263.383C166.454 263.485 162.374 266.849 154.214 267.052C148.809 267.154 135.55 267.46 123.922 258.287C118.721 254.209 116.273 250.132 114.947 250.846C113.621 251.559 116.579 258.796 117.293 268.683C117.905 276.43 116.375 279.284 115.049 288.763C112.397 307.62 116.579 311.289 114.131 328.923C113.193 336.261 111.448 343.474 108.929 350.43C106.293 351.266 103.787 352.467 101.484 353.997C91.3863 361.03 93.8341 370.51 84.5527 386.207C78.2291 397.011 71.0896 402.515 73.3334 406.287C74.2514 408.019 76.6992 408.529 78.5351 408.733C83.0228 409.956 90.3664 411.791 99.4438 413.524C144.831 422.187 165.434 414.441 184.099 430.036C191.442 436.152 196.236 444.102 198.174 447.364C203.717 456.626 207.423 466.87 209.087 477.535"
              stroke="#71657A" stroke-width="3" stroke-miterlimit="10" class="svg-elem-7 pszaAeEh_6"></path>
        <path d="M169.615 399.865C176.784 407.894 183.299 416.483 189.096 425.551C207.047 453.377 212.453 476.107 218.368 475.088C221.02 474.68 222.142 469.482 224.386 458.983C226.843 447.22 228.006 435.223 227.854 423.207C225.507 432.991 224.275 443.01 224.182 453.072C224.182 459.799 224.59 472.234 233.565 505.361C236.625 516.879 241.113 532.168 247.335 550.005C240.195 536.857 233.055 522.587 226.12 507.399C216.94 487.014 209.291 467.545 202.967 449.402"
              stroke="#71657A" stroke-width="3" stroke-miterlimit="10" class="svg-elem-8 pszaAeEh_7"></path>
        <path d="M 84.655 423.207 C 90.672 420.76 91.488 418.926 91.488 417.804 C 91.488 413.931 79.759 411.179 75.067 410.16 C 57.626 429.832 47.631 443.694 41.715 453.072 C 37.295 460.269 32.424 467.18 27.13 473.763 C 17.849 484.975 16.523 483.752 13.973 489.154"
              stroke="#71657A" stroke-width="3" stroke-miterlimit="10" class="svg-elem-9 pszaAeEh_8"></path>
    </g>
    <defs>
        <clipPath id="clip0">
            <path width="353" height="555" fill="white" class="svg-elem-10 pszaAeEh_9"
                  d="M0 0 L353 0 L353 555 L0 555 Z"></path>
        </clipPath>
    </defs>
    <style>.pszaAeEh_0{stroke-dasharray:1232
        1234;stroke-dashoffset:1233;animation:pszaAeEh_draw 1000ms linear 0ms forwards;}.pszaAeEh_1{stroke-dasharray:66
        68;stroke-dashoffset:67;animation:pszaAeEh_draw 1000ms linear 55ms forwards;}.pszaAeEh_2{stroke-dasharray:18
        20;stroke-dashoffset:19;animation:pszaAeEh_draw 1000ms linear 111ms forwards;}.pszaAeEh_3{stroke-dasharray:463
        465;stroke-dashoffset:464;animation:pszaAeEh_draw 1000ms linear 166ms
        forwards;}.pszaAeEh_4{stroke-dasharray:3366 3368;stroke-dashoffset:3367;animation:pszaAeEh_draw 1000ms linear
        222ms forwards;}.pszaAeEh_5{stroke-dasharray:608 610;stroke-dashoffset:609;animation:pszaAeEh_draw 1000ms linear
        277ms forwards;}.pszaAeEh_6{stroke-dasharray:744 746;stroke-dashoffset:745;animation:pszaAeEh_draw 1000ms linear
        333ms forwards;}.pszaAeEh_7{stroke-dasharray:385 387;stroke-dashoffset:386;animation:pszaAeEh_draw 1000ms linear
        388ms forwards;}.pszaAeEh_8{stroke-dasharray:129 131;stroke-dashoffset:130;animation:pszaAeEh_draw 1000ms linear
        444ms forwards;}.pszaAeEh_9{stroke-dasharray:1816 1818;stroke-dashoffset:1817;animation:pszaAeEh_draw 1000ms
        linear 500ms forwards;}@keyframes pszaAeEh_draw{100%{stroke-dashoffset:0;}}@keyframes
        pszaAeEh_fade{0%{stroke-opacity:1;}92.98245614035088%{stroke-opacity:1;}100%{stroke-opacity:0;}}
    </style>
</svg>
